# Exported from Wings 3D 1.4.1
mtllib cube.mtl
o cube1
#120 vertices, 122 faces
v -8.7200000e-2 8.7200000e-2 0.10000000
v -8.7200000e-2 -8.7200000e-2 0.10000000
v 8.7200000e-2 -8.7200000e-2 0.10000000
v 8.7200000e-2 8.7200000e-2 0.10000000
v -0.10000000 -8.7200000e-2 8.7200000e-2
v -0.10000000 8.7200000e-2 8.7200000e-2
v -0.10000000 8.7200000e-2 -8.7200000e-2
v -0.10000000 -8.7200000e-2 -8.7200000e-2
v -8.7200000e-2 0.10000000 8.7200000e-2
v 8.7200000e-2 0.10000000 8.7200000e-2
v 8.7200000e-2 0.10000000 -8.7200000e-2
v -8.7200000e-2 0.10000000 -8.7200000e-2
v -8.7200000e-2 -8.7200000e-2 -1.0000000e-1
v -8.7200000e-2 8.7200000e-2 -1.0000000e-1
v 8.7200000e-2 8.7200000e-2 -1.0000000e-1
v 8.7200000e-2 -8.7200000e-2 -1.0000000e-1
v 0.10000000 8.7200000e-2 8.7200000e-2
v 0.10000000 -8.7200000e-2 8.7200000e-2
v 0.10000000 -8.7200000e-2 -8.7200000e-2
v 0.10000000 8.7200000e-2 -8.7200000e-2
v 8.7200000e-2 -0.10000000 8.7200000e-2
v -8.7200000e-2 -0.10000000 8.7200000e-2
v -8.7200000e-2 -0.10000000 -8.7200000e-2
v 8.7200000e-2 -0.10000000 -8.7200000e-2
v 8.3782472e-2 -9.6422683e-2 8.8455798e-2
v 8.3782472e-2 -8.8455798e-2 9.6422683e-2
v -8.3782472e-2 -8.8455798e-2 9.6422683e-2
v -8.3782472e-2 -9.6422683e-2 8.8455798e-2
v -8.8455798e-2 8.3782472e-2 9.6422683e-2
v -9.6422683e-2 8.3782472e-2 8.8455798e-2
v -9.6422683e-2 -8.3782472e-2 8.8455798e-2
v -8.8455798e-2 -8.3782472e-2 9.6422683e-2
v -8.8455798e-2 9.6422683e-2 -8.3782472e-2
v -9.6422683e-2 8.8455798e-2 -8.3782472e-2
v -9.6422683e-2 8.8455798e-2 8.3782472e-2
v -8.8455798e-2 9.6422683e-2 8.3782472e-2
v 8.3782472e-2 8.8455798e-2 9.6422683e-2
v 8.3782472e-2 9.6422683e-2 8.8455798e-2
v -8.3782472e-2 9.6422683e-2 8.8455798e-2
v -8.3782472e-2 8.8455798e-2 9.6422683e-2
v 9.6422683e-2 8.8455798e-2 -8.3782472e-2
v 8.8455798e-2 9.6422683e-2 -8.3782472e-2
v 8.8455798e-2 9.6422683e-2 8.3782472e-2
v 9.6422683e-2 8.8455798e-2 8.3782472e-2
v -9.6422683e-2 8.3782472e-2 -8.8455798e-2
v -8.8455798e-2 8.3782472e-2 -9.6422683e-2
v -8.8455798e-2 -8.3782472e-2 -9.6422683e-2
v -9.6422683e-2 -8.3782472e-2 -8.8455798e-2
v 8.3782472e-2 9.6422683e-2 -8.8455798e-2
v 8.3782472e-2 8.8455798e-2 -9.6422683e-2
v -8.3782472e-2 8.8455798e-2 -9.6422683e-2
v -8.3782472e-2 9.6422683e-2 -8.8455798e-2
v 9.6422683e-2 -8.3782472e-2 -8.8455798e-2
v 8.8455798e-2 -8.3782472e-2 -9.6422683e-2
v 8.8455798e-2 8.3782472e-2 -9.6422683e-2
v 9.6422683e-2 8.3782472e-2 -8.8455798e-2
v 8.8455798e-2 -8.3782472e-2 9.6422683e-2
v 9.6422683e-2 -8.3782472e-2 8.8455798e-2
v 9.6422683e-2 8.3782472e-2 8.8455798e-2
v 8.8455798e-2 8.3782472e-2 9.6422683e-2
v 8.8455798e-2 -9.6422683e-2 -8.3782472e-2
v 9.6422683e-2 -8.8455798e-2 -8.3782472e-2
v 9.6422683e-2 -8.8455798e-2 8.3782472e-2
v 8.8455798e-2 -9.6422683e-2 8.3782472e-2
v -9.6422683e-2 -8.8455798e-2 -8.3782472e-2
v -8.8455798e-2 -9.6422683e-2 -8.3782472e-2
v -8.8455798e-2 -9.6422683e-2 8.3782472e-2
v -9.6422683e-2 -8.8455798e-2 8.3782472e-2
v 8.3782472e-2 -8.8455798e-2 -9.6422683e-2
v 8.3782472e-2 -9.6422683e-2 -8.8455798e-2
v -8.3782472e-2 -9.6422683e-2 -8.8455798e-2
v -8.3782472e-2 -8.8455798e-2 -9.6422683e-2
v -8.9535477e-2 -9.3964277e-2 8.9535477e-2
v -8.9535477e-2 -8.9535477e-2 9.3964277e-2
v -9.3964277e-2 -8.9535477e-2 8.9535477e-2
v -8.9535477e-2 8.9535477e-2 9.3964277e-2
v -8.9535477e-2 9.3964277e-2 8.9535477e-2
v -9.3964277e-2 8.9535477e-2 8.9535477e-2
v 8.9535477e-2 8.9535477e-2 9.3964277e-2
v 9.3964277e-2 8.9535477e-2 8.9535477e-2
v 8.9535477e-2 9.3964277e-2 8.9535477e-2
v 8.9535477e-2 -8.9535477e-2 9.3964277e-2
v 8.9535477e-2 -9.3964277e-2 8.9535477e-2
v 9.3964277e-2 -8.9535477e-2 8.9535477e-2
v -9.3964277e-2 -8.9535477e-2 -8.9535477e-2
v -8.9535477e-2 -8.9535477e-2 -9.3964277e-2
v -8.9535477e-2 -9.3964277e-2 -8.9535477e-2
v -9.3964277e-2 8.9535477e-2 -8.9535477e-2
v -8.9535477e-2 9.3964277e-2 -8.9535477e-2
v -8.9535477e-2 8.9535477e-2 -9.3964277e-2
v 8.9535477e-2 9.3964277e-2 -8.9535477e-2
v 9.3964277e-2 8.9535477e-2 -8.9535477e-2
v 8.9535477e-2 8.9535477e-2 -9.3964277e-2
v 8.9535477e-2 -8.9535477e-2 -9.3964277e-2
v 9.3964277e-2 -8.9535477e-2 -8.9535477e-2
v 8.9535477e-2 -9.3964277e-2 -8.9535477e-2
v -8.2840000e-2 8.2840000e-2 9.7992273e-2
v -8.2840000e-2 -8.2840000e-2 9.7992273e-2
v 8.2840000e-2 -8.2840000e-2 9.7992273e-2
v 8.2840000e-2 8.2840000e-2 9.7992273e-2
v 9.7992273e-2 8.2840000e-2 8.2840000e-2
v 9.7992273e-2 -8.2840000e-2 8.2840000e-2
v 9.7992273e-2 -8.2840000e-2 -8.2840000e-2
v 9.7992273e-2 8.2840000e-2 -8.2840000e-2
v 8.2840000e-2 -9.7992273e-2 8.2840000e-2
v -8.2840000e-2 -9.7992273e-2 8.2840000e-2
v -8.2840000e-2 -9.7992273e-2 -8.2840000e-2
v 8.2840000e-2 -9.7992273e-2 -8.2840000e-2
v -8.2840000e-2 9.7992273e-2 8.2840000e-2
v 8.2840000e-2 9.7992273e-2 8.2840000e-2
v 8.2840000e-2 9.7992273e-2 -8.2840000e-2
v -8.2840000e-2 9.7992273e-2 -8.2840000e-2
v -8.2840000e-2 -8.2840000e-2 -9.7992273e-2
v -8.2840000e-2 8.2840000e-2 -9.7992273e-2
v 8.2840000e-2 8.2840000e-2 -9.7992273e-2
v 8.2840000e-2 -8.2840000e-2 -9.7992273e-2
v -9.7992273e-2 -8.2840000e-2 8.2840000e-2
v -9.7992273e-2 8.2840000e-2 8.2840000e-2
v -9.7992273e-2 8.2840000e-2 -8.2840000e-2
v -9.7992273e-2 -8.2840000e-2 -8.2840000e-2
vt 0.0000000e+0 0.0000000e+0
vt 0.0000000e+0 1.00000000
vt 1.1102230e-16 1.00000000
vt 1.6653345e-16 0.0000000e+0
vt 2.7755576e-16 0.0000000e+0
vt 6.9740085e-3 0.21126749
vt 6.9740085e-3 0.21141331
vt 6.9740085e-3 0.23557199
vt 6.9740085e-3 0.23571781
vt 6.9740085e-3 0.25987649
vt 6.9740085e-3 0.26002232
vt 6.9740085e-3 0.18696299
vt 6.9740085e-3 0.18710881
vt 7.1002984e-3 0.21134040
vt 7.1002984e-3 0.23564490
vt 7.1002984e-3 0.25994940
vt 7.1002984e-3 0.18703590
vt 1.3948017e-2 0.35716741
vt 1.3948017e-2 0.28425390
vt 1.3948017e-2 0.30855840
vt 1.3948017e-2 0.33286290
vt 1.4074307e-2 0.35709449
vt 1.4074307e-2 0.35724032
vt 1.4074307e-2 0.28418099
vt 1.4074307e-2 0.28432682
vt 1.4074307e-2 0.30848549
vt 1.4074307e-2 0.30863132
vt 1.4074307e-2 0.33278999
vt 1.4074307e-2 0.33293582
vt 0.32316565 0.10917112
vt 0.32316565 0.10943344
vt 0.32316565 0.15289203
vt 0.32316565 0.15315435
vt 0.32316565 6.5450205e-2
vt 0.32316565 6.5712531e-2
vt 0.32316565 2.1729293e-2
vt 0.32316565 2.1991619e-2
vt 0.32706705 0.10917112
vt 0.32706705 0.10943344
vt 0.32706705 0.15289203
vt 0.32706705 0.15315435
vt 0.32706705 6.5450205e-2
vt 0.32706705 6.5712531e-2
vt 0.32706705 2.1729293e-2
vt 0.32706705 2.1991619e-2
vt 0.67196200 0.32316565
vt 0.67196200 0.32706705
vt 0.67222432 0.32316565
vt 0.67222432 0.32706705
vt 0.71568291 0.32316565
vt 0.71568291 0.32706705
vt 0.71594523 0.32316565
vt 0.71594523 0.32706705
vt 0.75940382 0.32316565
vt 0.75940382 0.32706705
vt 0.75966615 0.32316565
vt 0.75966615 0.32706705
vt 0.80312473 0.32316565
vt 0.80312473 0.32706705
vt 0.80338706 0.32316565
vt 0.80338706 0.32706705
vt 0.84684565 0.32316565
vt 0.84684565 0.32706705
vt 0.84710797 0.32316565
vt 0.84710797 0.32706705
vt 0.89056656 0.32316565
vt 0.89056656 0.32706705
vt 0.89082888 0.32316565
vt 0.89082888 0.32706705
vt 0.93428747 0.32316565
vt 0.93428747 0.32706705
vt 0.93454979 0.32316565
vt 0.93454979 0.32706705
vt 0.97800838 0.32316565
vt 0.97800838 0.32706705
vt 0.97827071 0.32316565
vt 0.97827071 0.32706705
vt 1.00000000 1.6653345e-16
vt 1.00000000 1.00000000
vt 1.00000000 0.0000000e+0
vt 1.00000000 1.00000000
vn -0.35762595 0.35762595 0.86267454
vn -0.35762595 -0.35762595 0.86267454
vn 0.35762595 -0.35762595 0.86267454
vn 0.35762595 0.35762595 0.86267454
vn -0.86267454 -0.35762595 0.35762595
vn -0.86267454 0.35762595 0.35762595
vn -0.86267454 0.35762595 -0.35762595
vn -0.86267454 -0.35762595 -0.35762595
vn -0.35762595 0.86267454 0.35762595
vn 0.35762595 0.86267454 0.35762595
vn 0.35762595 0.86267454 -0.35762595
vn -0.35762595 0.86267454 -0.35762595
vn -0.35762595 -0.35762595 -0.86267454
vn -0.35762595 0.35762595 -0.86267454
vn 0.35762595 0.35762595 -0.86267454
vn 0.35762595 -0.35762595 -0.86267454
vn 0.86267454 0.35762595 0.35762595
vn 0.86267454 -0.35762595 0.35762595
vn 0.86267454 -0.35762595 -0.35762595
vn 0.86267454 0.35762595 -0.35762595
vn 0.35762595 -0.86267454 0.35762595
vn -0.35762595 -0.86267454 0.35762595
vn -0.35762595 -0.86267454 -0.35762595
vn 0.35762595 -0.86267454 -0.35762595
vn -0.15092015 -0.58409671 0.79753003
vn -0.15092015 -0.79753003 0.58409671
vn 0.15092015 -0.79753003 0.58409671
vn 0.15092015 -0.58409671 0.79753003
vn -0.79753003 -0.15092015 0.58409671
vn -0.58409671 -0.15092015 0.79753003
vn -0.58409671 0.15092015 0.79753003
vn -0.79753003 0.15092015 0.58409671
vn -0.79753003 0.58409671 0.15092015
vn -0.58409671 0.79753003 0.15092015
vn -0.58409671 0.79753003 -0.15092015
vn -0.79753003 0.58409671 -0.15092015
vn -0.15092015 0.79753003 0.58409671
vn -0.15092015 0.58409671 0.79753003
vn 0.15092015 0.58409671 0.79753003
vn 0.15092015 0.79753003 0.58409671
vn 0.58409671 0.79753003 0.15092015
vn 0.79753003 0.58409671 0.15092015
vn 0.79753003 0.58409671 -0.15092015
vn 0.58409671 0.79753003 -0.15092015
vn -0.58409671 -0.15092015 -0.79753003
vn -0.79753003 -0.15092015 -0.58409671
vn -0.79753003 0.15092015 -0.58409671
vn -0.58409671 0.15092015 -0.79753003
vn -0.15092015 0.58409671 -0.79753003
vn -0.15092015 0.79753003 -0.58409671
vn 0.15092015 0.79753003 -0.58409671
vn 0.15092015 0.58409671 -0.79753003
vn 0.58409671 0.15092015 -0.79753003
vn 0.79753003 0.15092015 -0.58409671
vn 0.79753003 -0.15092015 -0.58409671
vn 0.58409671 -0.15092015 -0.79753003
vn 0.79753003 0.15092015 0.58409671
vn 0.58409671 0.15092015 0.79753003
vn 0.58409671 -0.15092015 0.79753003
vn 0.79753003 -0.15092015 0.58409671
vn 0.79753003 -0.58409671 0.15092015
vn 0.58409671 -0.79753003 0.15092015
vn 0.58409671 -0.79753003 -0.15092015
vn 0.79753003 -0.58409671 -0.15092015
vn -0.58409671 -0.79753003 0.15092015
vn -0.79753003 -0.58409671 0.15092015
vn -0.79753003 -0.58409671 -0.15092015
vn -0.58409671 -0.79753003 -0.15092015
vn -0.15092015 -0.79753003 -0.58409671
vn -0.15092015 -0.58409671 -0.79753003
vn 0.15092015 -0.58409671 -0.79753003
vn 0.15092015 -0.79753003 -0.58409671
vn -0.60669544 -0.51365482 0.60669544
vn -0.60669544 -0.60669544 0.51365482
vn -0.51365482 -0.60669544 0.60669544
vn -0.60669544 0.60669544 0.51365482
vn -0.60669544 0.51365482 0.60669544
vn -0.51365482 0.60669544 0.60669544
vn 0.60669544 0.60669544 0.51365482
vn 0.51365482 0.60669544 0.60669544
vn 0.60669544 0.51365482 0.60669544
vn 0.60669544 -0.60669544 0.51365482
vn 0.60669544 -0.51365482 0.60669544
vn 0.51365482 -0.60669544 0.60669544
vn -0.51365482 -0.60669544 -0.60669544
vn -0.60669544 -0.60669544 -0.51365482
vn -0.60669544 -0.51365482 -0.60669544
vn -0.51365482 0.60669544 -0.60669544
vn -0.60669544 0.51365482 -0.60669544
vn -0.60669544 0.60669544 -0.51365482
vn 0.60669544 0.51365482 -0.60669544
vn 0.51365482 0.60669544 -0.60669544
vn 0.60669544 0.60669544 -0.51365482
vn 0.60669544 -0.60669544 -0.51365482
vn 0.51365482 -0.60669544 -0.60669544
vn 0.60669544 -0.51365482 -0.60669544
vn 0.14532963 -0.14532963 0.97865142
vn 0.14532963 0.14532963 0.97865142
vn -0.14532963 0.14532963 0.97865142
vn -0.14532963 -0.14532963 0.97865142
vn 0.97865142 -0.14532963 -0.14532963
vn 0.97865142 0.14532963 -0.14532963
vn 0.97865142 0.14532963 0.14532963
vn 0.97865142 -0.14532963 0.14532963
vn -0.14532963 -0.97865142 -0.14532963
vn 0.14532963 -0.97865142 -0.14532963
vn 0.14532963 -0.97865142 0.14532963
vn -0.14532963 -0.97865142 0.14532963
vn 0.14532963 0.97865142 -0.14532963
vn -0.14532963 0.97865142 -0.14532963
vn -0.14532963 0.97865142 0.14532963
vn 0.14532963 0.97865142 0.14532963
vn 0.14532963 0.14532963 -0.97865142
vn 0.14532963 -0.14532963 -0.97865142
vn -0.14532963 -0.14532963 -0.97865142
vn -0.14532963 0.14532963 -0.97865142
vn -0.97865142 0.14532963 -0.14532963
vn -0.97865142 -0.14532963 -0.14532963
vn -0.97865142 -0.14532963 0.14532963
vn -0.97865142 0.14532963 0.14532963
g cube1_cube1_auv
usemtl cube1_auv
s 1
f 26/36/26 27/44/27 28/45/28 25/37/25
f 30/47/30 31/46/31 32/48/32 29/49/29
f 34/55/34 35/54/35 36/56/36 33/57/33
f 38/43/38 39/35/39 40/34/40 37/42/37
f 42/59/42 43/58/43 44/60/44 41/61/41
f 46/71/46 47/70/47 48/72/48 45/73/45
f 50/41/50 51/33/51 52/32/52 49/40/49
f 54/76/54 55/77/55 56/75/56 53/74/53
f 58/52/58 59/53/59 60/51/60 57/50/57
f 62/63/62 63/62/63 64/64/64 61/65/61
f 66/67/66 67/66/67 68/68/68 65/69/65
f 70/30/70 71/38/71 72/39/72 69/31/69
f 74/6/74 75/14/75 73/7/73
f 77/25/77 78/19/78 76/24/76
f 80/15/80 81/9/81 79/8/79
f 83/27/83 84/20/84 82/26/82
f 86/13/86 87/12/87 85/17/85
f 89/28/89 90/29/90 88/21/88
f 92/16/92 93/11/93 91/10/91
f 95/18/95 96/22/96 94/23/94
f 98/5/98 99/78/99 100/79/100 97/3/97
f 102/4/102 103/80/103 104/81/104 101/2/101
f 106/80/106 107/81/107 108/2/108 105/1/105
f 110/80/110 111/81/111 112/2/112 109/1/109
f 114/81/114 115/2/115 116/1/116 113/80/113
f 118/81/118 119/2/119 120/1/120 117/80/117
g cube1_default
usemtl default
s 1
f 1//1 76//76 78//78 6//6
f 1//1 97//97 100//100 4//4
f 2//2 74//74 73//73 22//22
f 2//2 98//98 97//97 1//1
f 3//3 82//82 84//84 18//18
f 3//3 99//99 98//98 2//2
f 4//4 79//79 81//81 10//10
f 4//4 100//100 99//99 3//3
f 5//5 75//75 74//74 2//2
f 5//5 117//117 120//120 8//8
f 6//6 78//78 77//77 9//9
f 6//6 118//118 117//117 5//5
f 7//7 88//88 90//90 14//14
f 7//7 119//119 118//118 6//6
f 8//8 85//85 87//87 23//23
f 8//8 120//120 119//119 7//7
f 9//9 77//77 76//76 1//1
f 9//9 109//109 112//112 12//12
f 10//10 81//81 80//80 17//17
f 10//10 110//110 109//109 9//9
f 11//11 91//91 93//93 15//15
f 11//11 111//111 110//110 10//10
f 12//12 89//89 88//88 7//7
f 12//12 112//112 111//111 11//11
f 13//13 86//86 85//85 8//8
f 13//13 113//113 116//116 16//16
f 14//14 90//90 89//89 12//12
f 14//14 114//114 113//113 13//13
f 15//15 93//93 92//92 20//20
f 15//15 115//115 114//114 14//14
f 16//16 94//94 96//96 24//24
f 16//16 116//116 115//115 15//15
f 17//17 80//80 79//79 4//4
f 17//17 101//101 104//104 20//20
f 18//18 84//84 83//83 21//21
f 18//18 102//102 101//101 17//17
f 19//19 95//95 94//94 16//16
f 19//19 103//103 102//102 18//18
f 20//20 92//92 91//91 11//11
f 20//20 104//104 103//103 19//19
f 21//21 83//83 82//82 3//3
f 21//21 105//105 108//108 24//24
f 22//22 73//73 75//75 5//5
f 22//22 106//106 105//105 21//21
f 23//23 87//87 86//86 13//13
f 23//23 107//107 106//106 22//22
f 24//24 96//96 95//95 19//19
f 24//24 108//108 107//107 23//23
g cube1_default2
usemtl default2
s 1
f 1//1 29//29 32//32 2//2
f 1//1 40//40 39//39 9//9
f 2//2 27//27 26//26 3//3
f 2//2 32//32 31//31 5//5
f 3//3 26//26 25//25 21//21
f 3//3 57//57 60//60 4//4
f 4//4 37//37 40//40 1//1
f 4//4 60//60 59//59 17//17
f 5//5 31//31 30//30 6//6
f 5//5 68//68 67//67 22//22
f 6//6 30//30 29//29 1//1
f 6//6 35//35 34//34 7//7
f 7//7 34//34 33//33 12//12
f 7//7 45//45 48//48 8//8
f 8//8 48//48 47//47 13//13
f 8//8 65//65 68//68 5//5
f 9//9 36//36 35//35 6//6
f 9//9 39//39 38//38 10//10
f 10//10 38//38 37//37 4//4
f 10//10 43//43 42//42 11//11
f 11//11 42//42 41//41 20//20
f 11//11 49//49 52//52 12//12
f 12//12 33//33 36//36 9//9
f 12//12 52//52 51//51 14//14
f 13//13 47//47 46//46 14//14
f 13//13 72//72 71//71 23//23
f 14//14 46//46 45//45 7//7
f 14//14 51//51 50//50 15//15
f 15//15 50//50 49//49 11//11
f 15//15 55//55 54//54 16//16
f 16//16 54//54 53//53 19//19
f 16//16 69//69 72//72 13//13
f 17//17 44//44 43//43 10//10
f 17//17 59//59 58//58 18//18
f 18//18 58//58 57//57 3//3
f 18//18 63//63 62//62 19//19
f 19//19 53//53 56//56 20//20
f 19//19 62//62 61//61 24//24
f 20//20 41//41 44//44 17//17
f 20//20 56//56 55//55 15//15
f 21//21 25//25 28//28 22//22
f 21//21 64//64 63//63 18//18
f 22//22 28//28 27//27 2//2
f 22//22 67//67 66//66 23//23
f 23//23 66//66 65//65 8//8
f 23//23 71//71 70//70 24//24
f 24//24 61//61 64//64 21//21
f 24//24 70//70 69//69 16//16
